<svg width="18" height="23" viewBox="0 0 18 23" fill="none" xmlns="http://www.w3.org/2000/svg">
<path d="M2.57143 0.280489C2.91428 0.0934962 3.34286 -1.52283e-07 3.85714 -1.75711e-07C4.35 -1.98163e-07 4.77857 0.0934961 5.14286 0.280489C5.48571 0.0934961 5.91429 -2.69423e-07 6.42857 -2.92851e-07C6.92143 -3.15303e-07 7.35 0.093496 7.71428 0.280489L7.71428 2.38415C8.05714 2.19715 8.48571 2.10366 9 2.10366C9.49286 2.10366 9.92143 2.19715 10.2857 2.38415L10.2857 4.4878C10.6286 4.30081 11.0571 4.20731 11.5714 4.20731C12.0643 4.20731 12.4929 4.30081 12.8571 4.4878L12.8571 5.89024C13.2 5.70325 13.6286 5.60976 14.1429 5.60976C14.6357 5.60976 15.0643 5.70325 15.4286 5.89024L15.4286 8.69512C15.7714 8.50813 16.2 8.41463 16.7143 8.41463C17.2071 8.41463 17.6357 8.50813 18 8.69512L18 14.3049C17.6357 14.4919 17.2071 14.5854 16.7143 14.5854C16.2 14.5854 15.7714 14.4919 15.4286 14.3049L15.4286 17.1098C15.0643 17.2967 14.6357 17.3902 14.1429 17.3902C13.6286 17.3902 13.2 17.2967 12.8571 17.1098L12.8571 18.5122C12.4929 18.6992 12.0643 18.7927 11.5714 18.7927C11.0571 18.7927 10.6286 18.6992 10.2857 18.5122L10.2857 20.6159C9.92143 20.8028 9.49286 20.8963 9 20.8963C8.48572 20.8963 8.05714 20.8028 7.71429 20.6159L7.71429 22.7195C7.35 22.9065 6.92143 23 6.42857 23C5.91429 23 5.48572 22.9065 5.14286 22.7195C4.77857 22.9065 4.35 23 3.85714 23C3.34286 23 2.91429 22.9065 2.57143 22.7195C2.20714 22.9065 1.77857 23 1.28571 23C0.771428 23 0.342857 22.9065 -1.17644e-08 22.7195L-2.47053e-07 17.1098C0.342856 16.9228 0.771427 16.8293 1.28571 16.8293C1.77857 16.8293 2.20714 16.9228 2.57143 17.1098C2.91429 16.9228 3.34286 16.8293 3.85714 16.8293C4.35 16.8293 4.77857 16.9228 5.14286 17.1098C5.48572 16.9228 5.91429 16.8293 6.42857 16.8293C6.92143 16.8293 7.35 16.9228 7.71429 17.1098L7.71429 15.0061C8.05714 14.8191 8.48572 14.7256 9 14.7256C9.49286 14.7256 9.92143 14.8191 10.2857 15.0061L10.2857 12.9024C10.6286 12.7154 11.0571 12.622 11.5714 12.622C12.0643 12.622 12.4929 12.7154 12.8571 12.9024L12.8571 10.0976C12.4929 10.2846 12.0643 10.378 11.5714 10.378C11.0571 10.378 10.6286 10.2846 10.2857 10.0976L10.2857 7.9939C9.92143 8.18089 9.49286 8.27439 9 8.27439C8.48572 8.27439 8.05714 8.18089 7.71429 7.9939L7.71429 5.89025C7.35 6.07724 6.92143 6.17073 6.42857 6.17073C5.91429 6.17073 5.48571 6.07724 5.14286 5.89025C4.77857 6.07724 4.35 6.17073 3.85714 6.17073C3.34286 6.17073 2.91429 6.07724 2.57143 5.89025C2.20714 6.07724 1.77857 6.17073 1.28571 6.17073C0.771427 6.17073 0.342856 6.07724 -7.1763e-07 5.89025L-9.52918e-07 0.280489C0.342856 0.0934963 0.771427 -3.51421e-08 1.28571 -5.85702e-08C1.77857 -8.10222e-08 2.20714 0.0934962 2.57143 0.280489Z" fill="white" fill-opacity="0.9"/>
</svg>
