<svg width="18" height="23" viewBox="0 0 18 23" fill="none" xmlns="http://www.w3.org/2000/svg">
<path opacity="0.49" d="M15.4286 0.280489C15.0857 0.0934962 14.6571 -1.52283e-07 14.1429 -1.75711e-07C13.65 -1.98163e-07 13.2214 0.0934961 12.8571 0.280489C12.5143 0.0934961 12.0857 -2.69423e-07 11.5714 -2.92851e-07C11.0786 -3.15303e-07 10.65 0.093496 10.2857 0.280489L10.2857 2.38415C9.94286 2.19716 9.51429 2.10366 9 2.10366C8.50714 2.10366 8.07857 2.19716 7.71429 2.38415L7.71429 4.4878C7.37143 4.30081 6.94286 4.20732 6.42857 4.20732C5.93571 4.20732 5.50714 4.30081 5.14286 4.4878L5.14286 5.89024C4.8 5.70325 4.37143 5.60976 3.85714 5.60976C3.36428 5.60976 2.93571 5.70325 2.57143 5.89024L2.57143 8.69512C2.22857 8.50813 1.8 8.41463 1.28571 8.41463C0.792855 8.41463 0.364285 8.50813 -1.30736e-06 8.69512L-1.54265e-06 14.3049C0.364285 14.4919 0.792855 14.5854 1.28571 14.5854C1.8 14.5854 2.22857 14.4919 2.57143 14.3049L2.57143 17.1098C2.93571 17.2967 3.36428 17.3902 3.85714 17.3902C4.37143 17.3902 4.8 17.2967 5.14286 17.1098L5.14286 18.5122C5.50714 18.6992 5.93571 18.7927 6.42857 18.7927C6.94286 18.7927 7.37143 18.6992 7.71429 18.5122L7.71428 20.6159C8.07857 20.8028 8.50714 20.8963 9 20.8963C9.51428 20.8963 9.94286 20.8028 10.2857 20.6159L10.2857 22.7195C10.65 22.9065 11.0786 23 11.5714 23C12.0857 23 12.5143 22.9065 12.8571 22.7195C13.2214 22.9065 13.65 23 14.1429 23C14.6571 23 15.0857 22.9065 15.4286 22.7195C15.7929 22.9065 16.2214 23 16.7143 23C17.2286 23 17.6571 22.9065 18 22.7195L18 17.1098C17.6571 16.9228 17.2286 16.8293 16.7143 16.8293C16.2214 16.8293 15.7929 16.9228 15.4286 17.1098C15.0857 16.9228 14.6571 16.8293 14.1429 16.8293C13.65 16.8293 13.2214 16.9228 12.8571 17.1098C12.5143 16.9228 12.0857 16.8293 11.5714 16.8293C11.0786 16.8293 10.65 16.9228 10.2857 17.1098L10.2857 15.0061C9.94286 14.8191 9.51428 14.7256 9 14.7256C8.50714 14.7256 8.07857 14.8191 7.71429 15.0061L7.71429 12.9024C7.37143 12.7154 6.94286 12.622 6.42857 12.622C5.93571 12.622 5.50714 12.7154 5.14286 12.9024L5.14286 10.0976C5.50714 10.2846 5.93571 10.378 6.42857 10.378C6.94286 10.378 7.37143 10.2846 7.71429 10.0976L7.71429 7.9939C8.07857 8.1809 8.50714 8.27439 9 8.27439C9.51428 8.27439 9.94286 8.1809 10.2857 7.9939L10.2857 5.89025C10.65 6.07724 11.0786 6.17073 11.5714 6.17073C12.0857 6.17073 12.5143 6.07724 12.8571 5.89025C13.2214 6.07724 13.65 6.17073 14.1429 6.17073C14.6571 6.17073 15.0857 6.07724 15.4286 5.89025C15.7929 6.07724 16.2214 6.17073 16.7143 6.17073C17.2286 6.17073 17.6571 6.07724 18 5.89025L18 0.280489C17.6571 0.0934963 17.2286 -3.51421e-08 16.7143 -5.85702e-08C16.2214 -8.10222e-08 15.7929 0.0934962 15.4286 0.280489Z" fill="white"/>
</svg>
