<svg width="576" height="1271" viewBox="0 0 576 1271" fill="none" xmlns="http://www.w3.org/2000/svg">
<path d="M57 845.5L144.969 850.43L213.097 855.907H283.215H340.402L398.585 852.56L513 844L506.496 1134.96L66.8951 1138L57 845.5Z" fill="url(#paint0_linear_5_115)"/>
<path d="M511 843.84C511 854.871 415.979 865 291.421 865C166.862 865 58 857.889 58 846.858C58 835.827 203.197 839.803 288.722 840.792C344.412 840.792 511 832.809 511 843.84Z" fill="url(#paint1_linear_5_115)"/>
<path opacity="0.47" fill-rule="evenodd" clip-rule="evenodd" d="M57 850L35 223.592C35 223.592 267.204 130.067 525 208.029L510.5 861L57 850Z" fill="url(#paint2_radial_5_115)"/>
<path fill-rule="evenodd" clip-rule="evenodd" d="M7.05737 106.492C7.05737 106.492 60.1898 128.421 281.065 128.421C501.94 128.421 559.057 84.8799 559.057 84.8799C559.057 84.8799 439.339 24.5156 269.553 24.5156C99.7668 24.5156 7.05737 106.492 7.05737 106.492Z" fill="#364665"/>
<path fill-rule="evenodd" clip-rule="evenodd" d="M37.8557 1112.61L533.303 1127.6L543.057 1153.47L24.0574 1148.34L37.8557 1112.61Z" fill="#596B89"/>
<path fill-rule="evenodd" clip-rule="evenodd" d="M27.5279 1220.02L11.648 1183.28L10.7639 1177.42L7.05737 1175.65L563.057 1177.42L530.107 1216.28L27.5279 1220.02Z" fill="#816A92"/>
<path fill-rule="evenodd" clip-rule="evenodd" d="M563.058 1153.47L522.388 1075.25H513.058L543.338 1153.27L563.058 1153.47Z" fill="url(#paint3_linear_5_115)"/>
<path fill-rule="evenodd" clip-rule="evenodd" d="M481.058 1153.47L447.194 1065.91H429.058L446.093 1152.16L481.058 1153.47Z" fill="url(#paint4_linear_5_115)"/>
<path fill-rule="evenodd" clip-rule="evenodd" d="M513.839 1075.25H509.058V1153.15L543.058 1153.47L513.839 1075.25Z" fill="#364665"/>
<path fill-rule="evenodd" clip-rule="evenodd" d="M429.761 1065.91H426.058V1150.87L447.058 1152.3L429.761 1065.91Z" fill="#816A92"/>
<path fill-rule="evenodd" clip-rule="evenodd" d="M530.95 1130.12L526.655 1140.51H480.894L474.058 1135.31L480.894 1153.47L539.058 1153.27L530.95 1130.12Z" fill="black"/>
<path fill-rule="evenodd" clip-rule="evenodd" d="M435.881 1124.28L442.058 1151.13L316.804 1149.97L313.058 1124.28L323.96 1137.71H429.333L435.881 1124.28Z" fill="#A898BC"/>
<path fill-rule="evenodd" clip-rule="evenodd" d="M92.0574 1153.47L125.27 1065.91H143.057L126.35 1152.16L92.0574 1153.47Z" fill="url(#paint5_linear_5_115)"/>
<path fill-rule="evenodd" clip-rule="evenodd" d="M60.0292 1075.25H65.0574V1153.15L29.0574 1153.47L60.0292 1075.25Z" fill="#364665"/>
<path fill-rule="evenodd" clip-rule="evenodd" d="M143.53 1065.91H147.058V1150.87L127.058 1152.3L143.53 1065.91Z" fill="#816A92"/>
<path fill-rule="evenodd" clip-rule="evenodd" d="M43.0404 1130.12L47.2688 1140.51H92.3259L99.0574 1135.31L92.3259 1153.47L35.0574 1153.27L43.0404 1130.12Z" fill="black"/>
<path fill-rule="evenodd" clip-rule="evenodd" d="M137.298 1124.28L131.058 1151.13L257.602 1149.97L263.058 1124.28L244.78 1141.34L143.913 1137.71L137.298 1124.28Z" fill="#A898BC"/>
<path fill-rule="evenodd" clip-rule="evenodd" d="M7.05737 1175.01L11.648 1147.63L563.057 1152.79V1176.82L7.05737 1175.01Z" fill="#364665"/>
<path fill-rule="evenodd" clip-rule="evenodd" d="M554.78 1271L565.806 1151.13C565.806 1151.13 308.253 995.67 12.5574 1166.31L4.55737 1262.63C89.6011 1174.03 424.951 1158.52 554.78 1271Z" fill="#596B89"/>
<path fill-rule="evenodd" clip-rule="evenodd" d="M522.315 1254.24C469.303 1226.25 412.586 1209.04 354.61 1203.34L404.159 1187.73C404.159 1187.73 466.674 1189.24 518.776 1226.03L522.315 1254.24Z" fill="#00FFFF"/>
<path fill-rule="evenodd" clip-rule="evenodd" d="M198.236 1209.38L307.476 1134.41C307.476 1134.41 485.322 1136.59 565.806 1201.67L571.115 1151.25C571.115 1151.25 468.103 1085.86 280.932 1085.86C93.7607 1085.86 5.55737 1161.64 5.55737 1161.64L11.5574 1262.63C11.5574 1262.63 69.2243 1228.65 198.236 1209.38Z" fill="url(#paint6_linear_5_115)"/>
<path fill-rule="evenodd" clip-rule="evenodd" d="M565.806 1201.67H561.178C561.178 1201.67 473.956 1134.13 306.796 1136.03L203.239 1208.62L198.237 1209.38L307.476 1134.41C307.476 1134.41 468.988 1126.06 565.806 1201.67Z" fill="#364665"/>
<path d="M10.9388 1197.83L10.0574 1196.24C39.052 1175.37 71.1107 1161.42 104.484 1155.15L166.05 1095.1L167.057 1096.57L105.114 1156.97H104.893C71.6841 1163.18 39.7829 1177.06 10.9388 1197.83V1197.83Z" fill="#364665"/>
<path d="M39.4075 1180.8L37.709 1180.92L41.7152 1259.64L43.4138 1259.53L39.4075 1180.8Z" fill="black"/>
<path fill-rule="evenodd" clip-rule="evenodd" d="M2.05737 1266L11.8504 1184.99H555.559L564.057 1267.88L2.05737 1266Z" fill="url(#paint7_radial_5_115)"/>
<path fill-rule="evenodd" clip-rule="evenodd" d="M8.48878 1182.52L7.05737 1205.83H341.086L361.567 1267.2L518.665 1267.88L527.014 1206.59L560.921 1207.31L561.057 1180.32L8.48878 1182.52Z" fill="url(#paint8_linear_5_115)"/>
<path fill-rule="evenodd" clip-rule="evenodd" d="M7.05737 1206.01L8.01027 1206.89L339.517 1207.86L355.408 1267.88H361.057L340.606 1206.01H7.05737Z" fill="black"/>
<path fill-rule="evenodd" clip-rule="evenodd" d="M526.058 1208.83L558.566 1209.51L560.058 1207.72L526.329 1207.17L526.058 1208.83Z" fill="black"/>
<path d="M118.36 1163.98H93.0574V1147.98H94.7647V1161.8H117.54L126.726 1147.63L128.057 1149.02L118.36 1163.98Z" fill="#364665"/>
<path d="M313.102 1167.48H258.785L256.058 1150.34L257.762 1149.97L260.183 1165.44H311.807L315.421 1150.42L317.058 1150.99L313.102 1167.48Z" fill="#364665"/>
<path d="M482.058 1167.48H455.151L446.058 1152.35L447.415 1151.13L455.999 1165.39H480.361V1153.14H482.058V1167.48Z" fill="#364665"/>
<path d="M563.058 1167.48H549.769L543.058 1153.38L544.493 1152.3L550.704 1165.4H563.058V1167.48Z" fill="#364665"/>
<path d="M564.058 1258.54H519.058V1260.88H564.058V1258.54Z" fill="#596B89"/>
<path fill-rule="evenodd" clip-rule="evenodd" d="M2.05737 1265.97L6.80222 1225.85H64.5276L75.4514 1248.88L184.177 1248.48L197.217 1225.85H319.358L332.057 1267.88L2.05737 1265.97Z" fill="url(#paint9_linear_5_115)"/>
<path fill-rule="evenodd" clip-rule="evenodd" d="M65.0574 1225.85H69.2761L77.0574 1249.2H75.0575L65.0574 1225.85Z" fill="#596B89"/>
<path fill-rule="evenodd" clip-rule="evenodd" d="M319.058 1225.85H320.213L332.058 1267.11L331.332 1267.88L319.058 1225.85Z" fill="#596B89"/>
<path fill-rule="evenodd" clip-rule="evenodd" d="M418.058 1269.05L420.97 1259.71H476.485L481.058 1269.05H418.058Z" fill="black"/>
<path fill-rule="evenodd" clip-rule="evenodd" d="M225.058 1269.05L227.97 1259.71H283.485L288.058 1269.05H225.058Z" fill="#364665"/>
<path fill-rule="evenodd" clip-rule="evenodd" d="M7.05737 107.408C7.05737 107.408 136.279 0 290.499 0C429.632 0 559.057 85.7131 559.057 85.7131C559.057 85.7131 274.526 -56.4307 7.05737 107.408Z" fill="url(#paint10_linear_5_115)"/>
<path fill-rule="evenodd" clip-rule="evenodd" d="M359.058 158.857L421.187 138.93C421.187 138.93 486.905 142.955 533.9 181.845L544.058 215.983L359.058 158.857Z" fill="#364665"/>
<path fill-rule="evenodd" clip-rule="evenodd" d="M526.058 224.378L522.81 222.988L506.058 1126.62H508.451L526.058 224.378Z" fill="#596B89"/>
<path fill-rule="evenodd" clip-rule="evenodd" d="M35.9172 222.224L64.5585 1113.14L66.9172 1114L38.1073 221L35.9172 222.224Z" fill="#596B89"/>
<path fill-rule="evenodd" clip-rule="evenodd" d="M7.05737 240.924C7.05737 240.924 279.975 287.613 559.057 226.647C540.427 141.063 173.744 33.8445 7.05737 240.924Z" fill="#364665"/>
<path fill-rule="evenodd" clip-rule="evenodd" d="M558.722 226.735L569.749 106.868C569.749 106.868 295.696 -49.3922 0 121.251L7.18072 240.999C92.2244 152.399 428.894 114.258 558.722 226.735Z" fill="url(#paint11_linear_5_115)"/>
<path fill-rule="evenodd" clip-rule="evenodd" d="M526.258 209.97C473.245 181.984 416.528 164.771 358.553 159.075L408.102 143.461C408.102 143.461 470.617 144.971 522.719 181.761L526.258 209.97Z" fill="url(#paint12_linear_5_115)"/>
<path fill-rule="evenodd" clip-rule="evenodd" d="M202.179 165.112L311.418 90.1404C311.418 90.1404 489.265 92.3256 569.749 157.404L575.057 106.986C575.057 106.986 472.045 41.5896 284.874 41.5896C97.7033 41.5896 0 121.369 0 121.369L7.18072 241.117C7.18072 241.117 73.1669 184.381 202.179 165.112Z" fill="url(#paint13_linear_5_115)"/>
<path fill-rule="evenodd" clip-rule="evenodd" d="M569.749 157.406H565.121C565.121 157.406 477.899 89.8637 310.738 91.7708L207.182 164.359L202.179 165.113L311.419 90.1419C311.419 90.1419 472.931 81.7985 569.749 157.406Z" fill="#364665"/>
<path d="M2.68783 158.955L1.73486 157.286C33.0836 135.415 67.7452 120.793 103.828 114.218L170.393 51.2852L171.482 52.8347L104.509 116.125H104.271C68.3651 122.641 33.8739 137.183 2.68783 158.955V158.955Z" fill="#364665"/>
<path d="M43.3499 136.534L41.6514 136.652L45.6576 215.379L47.3562 215.261L43.3499 136.534Z" fill="#364665"/>
<defs>
<linearGradient id="paint0_linear_5_115" x1="66.9561" y1="948.507" x2="506.557" y2="948.507" gradientUnits="userSpaceOnUse">
<stop stop-color="#2D3A55"/>
<stop offset="0.0740311" stop-color="#6F7D97"/>
<stop offset="0.15625" stop-color="#566581"/>
<stop offset="0.292245" stop-color="#364665"/>
<stop offset="0.334716" stop-color="#33425E"/>
<stop offset="0.38451" stop-color="#364665"/>
<stop offset="0.536458" stop-color="#596B89"/>
<stop offset="0.67" stop-color="#96A9D3"/>
<stop offset="0.72" stop-color="#A5BBE1"/>
<stop offset="0.78" stop-color="#C7D0E1"/>
<stop offset="0.848958" stop-color="#AEBFDF"/>
<stop offset="0.895113" stop-color="#9CABC7"/>
<stop offset="0.9199" stop-color="#8B9BB8"/>
<stop offset="0.994792" stop-color="#364665"/>
<stop offset="0.994892" stop-color="#364665"/>
</linearGradient>
<linearGradient id="paint1_linear_5_115" x1="56.5115" y1="865" x2="516.953" y2="859.495" gradientUnits="userSpaceOnUse">
<stop stop-color="#1E2738"/>
<stop offset="0.105647" stop-color="#57647A"/>
<stop offset="0.382663" stop-color="#29364D"/>
<stop offset="0.545865" stop-color="#46556D"/>
<stop offset="0.78458" stop-color="#9EA6B7"/>
<stop offset="0.889725" stop-color="#808EA6"/>
<stop offset="1" stop-color="#364665"/>
</linearGradient>
<radialGradient id="paint2_radial_5_115" cx="0" cy="0" r="1" gradientUnits="userSpaceOnUse" gradientTransform="translate(788.736 478.641) scale(180.713 852.526)">
<stop/>
<stop offset="1" stop-color="#3A3A3A"/>
</radialGradient>
<linearGradient id="paint3_linear_5_115" x1="538.041" y1="1153.47" x2="538.041" y2="1075.25" gradientUnits="userSpaceOnUse">
<stop stop-color="#596B89"/>
<stop offset="1" stop-color="#596B89"/>
</linearGradient>
<linearGradient id="paint4_linear_5_115" x1="455.04" y1="1153.51" x2="455.04" y2="1065.95" gradientUnits="userSpaceOnUse">
<stop stop-color="#D3C5E8"/>
<stop offset="1" stop-color="#DBEAE3"/>
</linearGradient>
<linearGradient id="paint5_linear_5_115" x1="117.574" y1="1153.51" x2="117.574" y2="1065.95" gradientUnits="userSpaceOnUse">
<stop stop-color="#D3C5E8"/>
<stop offset="1" stop-color="#DBEAE3"/>
</linearGradient>
<linearGradient id="paint6_linear_5_115" x1="5.59015" y1="1174.27" x2="571.123" y2="1174.27" gradientUnits="userSpaceOnUse">
<stop stop-color="#596B89"/>
<stop offset="0.1" stop-color="#364665"/>
<stop offset="0.23" stop-color="#596B89"/>
<stop offset="0.4" stop-color="#C4CCDE"/>
<stop offset="0.59" stop-color="#C4CCDE"/>
<stop offset="0.67" stop-color="#596B89"/>
<stop offset="0.72" stop-color="#364665"/>
<stop offset="0.78" stop-color="#364665"/>
<stop offset="0.85" stop-color="#C4CCDE"/>
<stop offset="0.895833" stop-color="#596B89"/>
<stop offset="0.92" stop-color="#364665"/>
<stop offset="0.96875" stop-color="#596B89"/>
<stop offset="0.99" stop-color="#364665"/>
</linearGradient>
<radialGradient id="paint7_radial_5_115" cx="0" cy="0" r="1" gradientUnits="userSpaceOnUse" gradientTransform="translate(302.35 1232.38) scale(186.924 220.628)">
<stop offset="0.01" stop-color="#364665"/>
<stop offset="1" stop-color="#364665"/>
</radialGradient>
<linearGradient id="paint8_linear_5_115" x1="7.05737" y1="1224.1" x2="561.057" y2="1224.1" gradientUnits="userSpaceOnUse">
<stop stop-color="#364665"/>
<stop offset="0.1" stop-color="#8B9BB8"/>
<stop offset="0.23" stop-color="#364665"/>
<stop offset="0.4" stop-color="#364665"/>
<stop offset="0.536458" stop-color="#596B89"/>
<stop offset="0.67" stop-color="#C4CCDE"/>
<stop offset="0.72" stop-color="#8B9BB8"/>
<stop offset="0.78" stop-color="#364665"/>
<stop offset="0.848958" stop-color="#364665"/>
<stop offset="0.9199" stop-color="#8B9BB8"/>
<stop offset="0.92" stop-color="#8B9BB8"/>
<stop offset="0.994792" stop-color="#364665"/>
</linearGradient>
<linearGradient id="paint9_linear_5_115" x1="149.323" y1="1243.31" x2="148.961" y2="1267.88" gradientUnits="userSpaceOnUse">
<stop/>
<stop offset="0.694136" stop-color="#364665"/>
</linearGradient>
<linearGradient id="paint10_linear_5_115" x1="7.05737" y1="53.7055" x2="559.057" y2="53.7055" gradientUnits="userSpaceOnUse">
<stop stop-color="#364665"/>
<stop offset="0.1" stop-color="#8B9BB8"/>
<stop offset="0.536458" stop-color="#596B89"/>
<stop offset="0.67" stop-color="#C4CCDE"/>
<stop offset="0.72" stop-color="#8B9BB8"/>
<stop offset="0.9199" stop-color="#8B9BB8"/>
<stop offset="0.92" stop-color="#8B9BB8"/>
<stop offset="0.994792" stop-color="#364665"/>
</linearGradient>
<linearGradient id="paint11_linear_5_115" x1="0.0330183" y1="141.277" x2="569.757" y2="141.277" gradientUnits="userSpaceOnUse">
<stop stop-color="#596B89"/>
<stop offset="0.1" stop-color="#364665"/>
<stop offset="0.23" stop-color="#596B89"/>
<stop offset="0.4" stop-color="#C4CCDE"/>
<stop offset="0.59" stop-color="#C4CCDE"/>
<stop offset="0.67" stop-color="#596B89"/>
<stop offset="0.72" stop-color="#364665"/>
<stop offset="0.78" stop-color="#364665"/>
<stop offset="0.85" stop-color="#C4CCDE"/>
<stop offset="0.895833" stop-color="#596B89"/>
<stop offset="0.92" stop-color="#364665"/>
<stop offset="0.96875" stop-color="#596B89"/>
<stop offset="0.99" stop-color="#364665"/>
</linearGradient>
<linearGradient id="paint12_linear_5_115" x1="441.818" y1="210.395" x2="441.872" y2="130.111" gradientUnits="userSpaceOnUse">
<stop stop-color="#00EBAA"/>
<stop offset="0.08" stop-color="#04E3A8"/>
<stop offset="0.67" stop-color="#1BB09C"/>
<stop offset="0.96" stop-color="#249C97"/>
</linearGradient>
<linearGradient id="paint13_linear_5_115" x1="0" y1="141.356" x2="575.057" y2="141.356" gradientUnits="userSpaceOnUse">
<stop stop-color="#364665"/>
<stop offset="0.1" stop-color="#8B9BB8"/>
<stop offset="0.536458" stop-color="#596B89"/>
<stop offset="0.67" stop-color="#C4CCDE"/>
<stop offset="0.72" stop-color="#8B9BB8"/>
<stop offset="0.78" stop-color="#364665"/>
<stop offset="0.9199" stop-color="#8B9BB8"/>
<stop offset="0.92" stop-color="#8B9BB8"/>
<stop offset="0.994792" stop-color="#364665"/>
</linearGradient>
</defs>
</svg>
